<svg width="84" height="84" viewBox="0 0 84 84" fill="none" xmlns="http://www.w3.org/2000/svg">
<path d="M42.2795 83.3143C65.2662 83.3143 83.9005 64.6799 83.9005 41.6933C83.9005 18.7066 65.2662 0.0722656 42.2795 0.0722656C19.2929 0.0722656 0.658508 18.7066 0.658508 41.6933C0.658508 64.6799 19.2929 83.3143 42.2795 83.3143Z" fill="#2E3C71"/>
<path d="M25.7992 43.1381C24.258 43.1463 22.749 42.6972 21.4629 41.8477C20.1769 40.9983 19.1717 39.7865 18.5743 38.3657C17.977 36.9449 17.8144 35.3789 18.1071 33.8657C18.3997 32.3525 19.1346 30.9601 20.2186 29.8645C21.3026 28.7689 22.6872 28.0193 24.1972 27.7106C25.7072 27.4019 27.2749 27.548 28.7019 28.1302C30.129 28.7124 31.3513 29.7048 32.2144 30.9817C33.0775 32.2587 33.5425 33.7628 33.5507 35.3041C33.5561 36.3274 33.3599 37.3419 32.9733 38.2894C32.5867 39.2369 32.0173 40.0991 31.2975 40.8265C30.5777 41.554 29.7216 42.1325 28.7783 42.5292C27.8349 42.9258 26.8226 43.1327 25.7992 43.1381ZM25.7992 28.4476C24.4377 28.4476 23.1067 28.8513 21.9746 29.6077C20.8426 30.3642 19.9602 31.4393 19.4392 32.6972C18.9181 33.9551 18.7818 35.3392 19.0474 36.6746C19.3131 38.01 19.9687 39.2366 20.9315 40.1994C21.8942 41.1621 23.1208 41.8178 24.4562 42.0834C25.7916 42.349 27.1757 42.2127 28.4336 41.6917C29.6915 41.1706 30.7667 40.2883 31.5231 39.1562C32.2795 38.0241 32.6833 36.6932 32.6833 35.3316C32.6869 34.4253 32.5115 33.5271 32.1672 32.6887C31.8229 31.8503 31.3164 31.0882 30.6768 30.446C30.0371 29.8039 29.277 29.2943 28.44 28.9467C27.603 28.599 26.7056 28.42 25.7992 28.42V28.4476Z" fill="white"/>
<path d="M25.7991 43.3046C24.2263 43.3073 22.688 42.8439 21.3785 41.973C20.0689 41.102 19.0467 39.8625 18.4411 38.411C17.8355 36.9595 17.6735 35.3612 17.9757 33.8177C18.2779 32.2742 19.0306 30.8549 20.1389 29.739C21.2472 28.623 22.6612 27.8605 24.2026 27.5477C25.7439 27.2349 27.3434 27.3858 28.799 27.9813C30.2546 28.5769 31.5011 29.5905 32.3811 30.894C33.2611 32.1975 33.7351 33.7326 33.7433 35.3053C33.7487 36.3527 33.5474 37.3908 33.1507 38.3602C32.7541 39.3296 32.17 40.2111 31.432 40.9543C30.6939 41.6975 29.8164 42.2876 28.8498 42.691C27.8832 43.0943 26.8465 43.3028 25.7991 43.3046ZM25.7991 27.7329C24.2876 27.7302 22.8094 28.1766 21.552 29.0156C20.2947 29.8545 19.315 31.0481 18.7372 32.4448C18.1595 33.8415 18.0097 35.3784 18.3069 36.8604C18.6042 38.3424 19.335 39.7026 20.4067 40.7685C21.4784 41.8344 22.8426 42.5579 24.3262 42.847C25.8098 43.1362 27.3459 42.9781 28.7394 42.3927C30.133 41.8074 31.3212 40.8212 32.1533 39.5593C32.9854 38.2974 33.4238 36.8168 33.4129 35.3053C33.3948 33.2954 32.5855 31.3736 31.1604 29.9562C29.7352 28.5388 27.809 27.74 25.7991 27.7329ZM25.7991 42.4234C24.4006 42.4261 23.0327 42.0144 21.868 41.2403C20.7033 40.4661 19.7941 39.3643 19.2552 38.0738C18.7163 36.7833 18.5718 35.3621 18.84 33.9896C19.1081 32.6171 19.777 31.3548 20.762 30.3621C21.747 29.3693 23.0041 28.6907 24.3745 28.4119C25.7449 28.1331 27.1672 28.2665 28.4618 28.7954C29.7564 29.3243 30.8653 30.2249 31.6485 31.3836C32.4316 32.5422 32.854 33.9069 32.8621 35.3053C32.8676 36.237 32.689 37.1605 32.3367 38.023C31.9843 38.8855 31.4651 39.6699 30.8089 40.3312C30.1527 40.9926 29.3723 41.5178 28.5126 41.8769C27.6529 42.2359 26.7308 42.4216 25.7991 42.4234ZM25.7991 28.6553C24.4601 28.6527 23.1507 29.0486 22.0374 29.7926C20.9242 30.5366 20.0575 31.595 19.5477 32.8332C19.0379 34.0713 18.9081 35.4331 19.1748 36.7453C19.4414 38.0574 20.0925 39.2605 21.0451 40.2015C21.9978 41.1424 23.2088 41.7786 24.5242 42.029C25.8395 42.2795 27.1996 42.1328 28.4314 41.6078C29.6631 41.0828 30.7107 40.2031 31.4409 39.0807C32.1711 37.9584 32.5508 36.6442 32.5317 35.3053C32.5136 33.5291 31.7972 31.8314 30.5373 30.5793C29.2774 29.3271 27.5754 28.6212 25.7991 28.614V28.6553Z" fill="white"/>
<path d="M35.5326 59.3026H16.4363C16.3194 59.3026 16.2074 59.2561 16.1247 59.1735C16.0421 59.0909 15.9957 58.9788 15.9957 58.862V52.2533C15.9458 50.9103 16.1673 49.5711 16.6468 48.3157C17.1263 47.0603 17.8541 45.9145 18.7865 44.9468C19.719 43.979 20.837 43.2093 22.0738 42.6835C23.3105 42.1577 24.6406 41.8867 25.9845 41.8867C27.3283 41.8867 28.6584 42.1577 29.8951 42.6835C31.1319 43.2093 32.2499 43.979 33.1824 44.9468C34.1149 45.9145 34.8426 47.0603 35.3221 48.3157C35.8016 49.5711 36.0231 50.9103 35.9732 52.2533V58.862C35.9732 58.9788 35.9268 59.0909 35.8442 59.1735C35.7616 59.2561 35.6495 59.3026 35.5326 59.3026ZM16.8631 58.4214H35.1058V52.2533C35.0142 49.8955 34.0131 47.6647 32.3125 46.0289C30.612 44.3932 28.344 43.4795 25.9845 43.4795C23.6249 43.4795 21.3569 44.3932 19.6564 46.0289C17.9558 47.6647 16.9547 49.8955 16.8631 52.2533V58.4214Z" fill="white"/>
<path d="M35.5469 59.4681H16.4368C16.2761 59.4681 16.122 59.4042 16.0084 59.2906C15.8948 59.177 15.831 59.0229 15.831 58.8623V52.2536C15.7807 50.8887 16.0061 49.5277 16.4938 48.2519C16.9814 46.976 17.7213 45.8116 18.6691 44.8283C19.617 43.8449 20.7533 43.0626 22.0103 42.5284C23.2673 41.9941 24.6191 41.7188 25.985 41.7188C27.3508 41.7188 28.7026 41.9941 29.9596 42.5284C31.2166 43.0626 32.353 43.8449 33.3008 44.8283C34.2487 45.8116 34.9885 46.976 35.4762 48.2519C35.9638 49.5277 36.1892 50.8887 36.1389 52.2536V58.8623C36.139 59.0206 36.0771 59.1726 35.9664 59.2858C35.8558 59.3991 35.7052 59.4645 35.5469 59.4681ZM25.9918 42.4231C23.3858 42.4268 20.8875 43.4637 19.0447 45.3064C17.2019 47.1492 16.1651 49.6475 16.1614 52.2536V58.8623C16.1614 58.9353 16.1904 59.0053 16.2421 59.057C16.2937 59.1086 16.3637 59.1376 16.4368 59.1376H35.5469C35.5825 59.1377 35.6176 59.1305 35.6503 59.1165C35.683 59.1025 35.7125 59.082 35.7369 59.0562C35.7614 59.0304 35.7804 59 35.7927 58.9666C35.805 58.9333 35.8104 58.8978 35.8085 58.8623V52.2536C35.8049 49.6499 34.7699 47.1537 32.9301 45.3113C31.0903 43.4689 28.5955 42.4304 25.9918 42.4231ZM35.1063 58.5869H16.8636C16.8222 58.5835 16.7836 58.5645 16.7556 58.5339C16.7275 58.5033 16.712 58.4632 16.7121 58.4217V52.2536C16.7121 49.7925 17.6898 47.4321 19.4301 45.6918C21.1704 43.9516 23.5307 42.9739 25.9918 42.9739C28.453 42.9739 30.8133 43.9516 32.5536 45.6918C34.2939 47.4321 35.2716 49.7925 35.2716 52.2536V58.4217C35.2684 58.4645 35.25 58.5047 35.2196 58.535C35.1893 58.5653 35.1491 58.5837 35.1063 58.5869ZM17.0288 58.2565H34.9274V52.2536C34.8004 49.9659 33.8022 47.8137 32.1378 46.2391C30.4734 44.6646 28.2693 43.7871 25.9781 43.7871C23.6869 43.7871 21.4827 44.6646 19.8183 46.2391C18.1539 47.8137 17.1558 49.9659 17.0288 52.2536V58.2565Z" fill="white"/>
<path d="M58.3329 37.0386C56.7911 37.0386 55.2839 36.5812 54.0021 35.7244C52.7203 34.8675 51.7215 33.6496 51.1321 32.2249C50.5427 30.8001 50.3891 29.2325 50.6909 27.7205C50.9927 26.2085 51.7363 24.82 52.8275 23.7307C53.9187 22.6414 55.3086 21.9003 56.8211 21.6012C58.3337 21.3021 59.901 21.4583 61.3246 22.0503C62.7483 22.6422 63.9645 23.6432 64.8191 24.9265C65.6737 26.2098 66.1284 27.7178 66.1257 29.2597C66.122 31.324 65.2994 33.3026 63.8384 34.7611C62.3774 36.2195 60.3973 37.0386 58.3329 37.0386ZM58.3329 22.3481C56.9714 22.3481 55.6404 22.7518 54.5084 23.5082C53.3763 24.2647 52.4939 25.3398 51.9729 26.5977C51.4519 27.8556 51.3155 29.2397 51.5812 30.5751C51.8468 31.9105 52.5024 33.1371 53.4652 34.0999C54.4279 35.0626 55.6545 35.7183 56.9899 35.9839C58.3253 36.2495 59.7095 36.1132 60.9674 35.5922C62.2252 35.0711 63.3004 34.1888 64.0568 33.0567C64.8133 31.9246 65.217 30.5937 65.217 29.2321C65.217 28.3281 65.0389 27.4329 64.693 26.5977C64.347 25.7625 63.8399 25.0036 63.2007 24.3643C62.5615 23.7251 61.8026 23.218 60.9674 22.8721C60.1321 22.5261 59.237 22.3481 58.3329 22.3481Z" fill="white"/>
<path d="M58.3328 37.205C56.7583 37.205 55.2191 36.7379 53.9101 35.8629C52.6012 34.9878 51.5812 33.7442 50.9793 32.2892C50.3774 30.8343 50.2206 29.2335 50.5287 27.6894C50.8369 26.1454 51.5962 24.7274 52.7105 23.615C53.8249 22.5026 55.2441 21.7458 56.7887 21.4403C58.3333 21.1348 59.9338 21.2944 61.3877 21.8988C62.8416 22.5032 64.0835 23.5254 64.9563 24.8358C65.8291 26.1463 66.2935 27.6863 66.2908 29.2608C66.2871 31.369 65.4471 33.3896 63.9551 34.879C62.463 36.3685 60.441 37.205 58.3328 37.205ZM58.3328 21.6333C56.8242 21.6333 55.3495 22.0806 54.0951 22.9187C52.8408 23.7569 51.8632 24.9481 51.2859 26.3419C50.7085 27.7356 50.5575 29.2693 50.8518 30.7489C51.1461 32.2285 51.8726 33.5876 52.9393 34.6543C54.006 35.721 55.3651 36.4475 56.8447 36.7418C58.3243 37.0361 59.858 36.885 61.2517 36.3077C62.6455 35.7304 63.8367 34.7528 64.6748 33.4984C65.513 32.2441 65.9603 30.7694 65.9603 29.2608C65.9603 27.2379 65.1567 25.2978 63.7263 23.8673C62.2958 22.4369 60.3557 21.6333 58.3328 21.6333ZM58.3328 36.3238C56.9325 36.3238 55.5638 35.9085 54.3997 35.1302C53.2356 34.352 52.3286 33.2459 51.7934 31.952C51.2581 30.6581 51.1188 29.2345 51.393 27.8613C51.6671 26.4882 52.3425 25.2273 53.3336 24.2381C54.3247 23.2489 55.5869 22.576 56.9606 22.3045C58.3343 22.033 59.7576 22.1751 61.0505 22.7129C62.3434 23.2506 63.4477 24.1598 64.2236 25.3254C64.9996 26.491 65.4123 27.8606 65.4096 29.2608C65.4096 30.1895 65.2264 31.1091 64.8706 31.9669C64.5148 32.8247 63.9933 33.604 63.336 34.26C62.6787 34.916 61.8984 35.436 61.0399 35.7902C60.1814 36.1443 59.2615 36.3257 58.3328 36.3238ZM58.3328 22.5557C56.9985 22.5557 55.6941 22.9514 54.5847 23.6927C53.4753 24.434 52.6106 25.4876 52.0999 26.7204C51.5893 27.9531 51.4557 29.3096 51.716 30.6183C51.9763 31.9269 52.6189 33.129 53.5624 34.0725C54.5059 35.016 55.708 35.6585 57.0166 35.9189C58.3253 36.1792 59.6818 36.0456 60.9145 35.5349C62.1472 35.0243 63.2009 34.1596 63.9422 33.0502C64.6835 31.9408 65.0792 30.6364 65.0792 29.3021C65.0846 28.4127 64.9141 27.531 64.5775 26.7077C64.2409 25.8844 63.7449 25.1358 63.1179 24.505C62.4908 23.8741 61.7453 23.3735 60.9241 23.0319C60.1029 22.6903 59.2222 22.5144 58.3328 22.5144V22.5557Z" fill="white"/>
<path d="M68.1218 53.2031H49.0117C48.8948 53.2031 48.7828 53.1567 48.7002 53.0741C48.6175 52.9915 48.5711 52.8794 48.5711 52.7626V46.1539C48.5711 44.8412 48.8297 43.5414 49.332 42.3287C49.8343 41.116 50.5706 40.014 51.4988 39.0859C52.4269 38.1577 53.5289 37.4214 54.7416 36.9191C55.9543 36.4167 57.2541 36.1582 58.5668 36.1582C59.8794 36.1582 61.1792 36.4167 62.3919 36.9191C63.6047 37.4214 64.7066 38.1577 65.6348 39.0859C66.5629 40.014 67.2992 41.116 67.8015 42.3287C68.3039 43.5414 68.5624 44.8412 68.5624 46.1539V52.7488C68.5643 52.8078 68.5542 52.8666 68.5329 52.9216C68.5116 52.9767 68.4794 53.0269 68.4383 53.0693C68.3972 53.1116 68.348 53.1453 68.2937 53.1683C68.2393 53.1913 68.1809 53.2032 68.1218 53.2031ZM49.4523 52.3357H67.6813V46.1539C67.6813 43.7365 66.721 41.4182 65.0117 39.7089C63.3024 37.9996 60.9841 37.0394 58.5668 37.0394C56.1494 37.0394 53.8311 37.9996 52.1218 39.7089C50.4125 41.4182 49.4523 43.7365 49.4523 46.1539V52.3357Z" fill="white"/>
<path d="M68.1223 53.3557H49.0122C48.8515 53.3557 48.6974 53.2919 48.5838 53.1783C48.4702 53.0647 48.4064 52.9106 48.4064 52.7499V46.155C48.4064 43.4602 49.4769 40.8757 51.3825 38.9702C53.288 37.0647 55.8724 35.9941 58.5673 35.9941C61.2621 35.9941 63.8466 37.0647 65.7521 38.9702C67.6576 40.8757 68.7281 43.4602 68.7281 46.155V52.7499C68.7281 52.9106 68.6643 53.0647 68.5507 53.1783C68.4371 53.2919 68.283 53.3557 68.1223 53.3557ZM58.5673 36.3246C57.2728 36.3191 55.9901 36.5694 54.7926 37.061C53.5952 37.5526 52.5066 38.2758 51.5894 39.1892C50.6722 40.1026 49.9444 41.1881 49.4478 42.3835C48.9512 43.5789 48.6955 44.8606 48.6955 46.155V52.7499C48.6955 52.823 48.7245 52.893 48.7762 52.9446C48.8278 52.9963 48.8979 53.0253 48.9709 53.0253H68.1223C68.1954 53.0253 68.2654 52.9963 68.3171 52.9446C68.3687 52.893 68.3977 52.823 68.3977 52.7499V46.155C68.3977 43.5478 67.362 41.0474 65.5184 39.2038C63.6749 37.3603 61.1745 36.3246 58.5673 36.3246ZM67.6818 52.4883H49.4528C49.409 52.4883 49.3669 52.4709 49.336 52.44C49.305 52.409 49.2876 52.3669 49.2876 52.3231V46.155C49.2876 44.9364 49.5276 43.7297 49.9939 42.6038C50.4603 41.478 51.1438 40.455 52.0055 39.5933C52.8672 38.7316 53.8902 38.048 55.0161 37.5817C56.1419 37.1153 57.3486 36.8753 58.5673 36.8753C59.7859 36.8753 60.9926 37.1153 62.1185 37.5817C63.2443 38.048 64.2673 38.7316 65.129 39.5933C65.9907 40.455 66.6743 41.478 67.1406 42.6038C67.607 43.7297 67.847 44.9364 67.847 46.155V52.3231C67.847 52.3669 67.8296 52.409 67.7986 52.44C67.7676 52.4709 67.7256 52.4883 67.6818 52.4883ZM49.618 52.1579H67.5165V46.155C67.5165 44.9798 67.2851 43.816 66.8353 42.7303C66.3856 41.6445 65.7264 40.6579 64.8954 39.8269C64.0643 38.9959 63.0778 38.3367 61.992 37.887C60.9062 37.4372 59.7425 37.2057 58.5673 37.2057C57.392 37.2057 56.2283 37.4372 55.1425 37.887C54.0568 38.3367 53.0702 38.9959 52.2392 39.8269C51.4082 40.6579 50.749 41.6445 50.2992 42.7303C49.8495 43.816 49.618 44.9798 49.618 46.155V52.1579Z" fill="white"/>
<path d="M37.1849 47.4623C37.1589 47.4737 37.1308 47.4795 37.1023 47.4795C37.0739 47.4795 37.0458 47.4737 37.0197 47.4623C36.9751 47.4161 36.9502 47.3544 36.9502 47.2902C36.9502 47.226 36.9751 47.1643 37.0197 47.1181L43.9038 40.1652C43.95 40.1206 44.0117 40.0957 44.0759 40.0957C44.1401 40.0957 44.2018 40.1206 44.248 40.1652C44.2935 40.2137 44.3188 40.2777 44.3188 40.3442C44.3188 40.4107 44.2935 40.4747 44.248 40.5232L37.3639 47.4072C37.3405 47.4299 37.3121 47.4467 37.281 47.4562C37.2499 47.4658 37.217 47.4679 37.1849 47.4623Z" fill="white"/>
<path d="M37.185 47.559C37.0984 47.5541 37.0159 47.5202 36.951 47.4626C36.9181 47.4317 36.8918 47.3944 36.8739 47.3529C36.8559 47.3115 36.8467 47.2668 36.8467 47.2217C36.8467 47.1765 36.8559 47.1318 36.8739 47.0904C36.8918 47.0489 36.9181 47.0116 36.951 46.9807L43.835 40.0967C43.8646 40.0572 43.9024 40.0246 43.9456 40.001C43.9889 39.9774 44.0368 39.9633 44.086 39.9599C44.1352 39.9564 44.1846 39.9635 44.2308 39.9807C44.277 39.998 44.3189 40.0249 44.3538 40.0598C44.3887 40.0947 44.4156 40.1366 44.4329 40.1828C44.4501 40.229 44.4572 40.2784 44.4537 40.3276C44.4502 40.3768 44.4362 40.4246 44.4126 40.4679C44.389 40.5112 44.3564 40.549 44.3169 40.5786L37.4329 47.4626C37.3637 47.5221 37.2762 47.5561 37.185 47.559ZM44.0691 40.1242C44.0337 40.1104 43.9944 40.1104 43.959 40.1242L37.0749 47.0083C37.0578 47.0211 37.0439 47.0377 37.0344 47.0568C37.0248 47.0759 37.0198 47.097 37.0198 47.1184C37.0198 47.1398 37.0248 47.1609 37.0344 47.18C37.0439 47.1991 37.0578 47.2157 37.0749 47.2285C37.0862 47.2456 37.1015 47.2596 37.1196 47.2692C37.1376 47.2789 37.1577 47.284 37.1782 47.284C37.1986 47.284 37.2187 47.2789 37.2368 47.2692C37.2548 47.2596 37.2701 47.2456 37.2814 47.2285L44.2343 40.3445C44.2614 40.3142 44.2764 40.275 44.2764 40.2343C44.2764 40.1937 44.2614 40.1545 44.2343 40.1242C44.2028 40.1154 44.1695 40.1154 44.1379 40.1242H44.0691Z" fill="white"/>
<path d="M40.4343 44.1995C40.3686 44.1975 40.3054 44.1733 40.2553 44.1306C40.2098 44.0821 40.1845 44.0181 40.1845 43.9516C40.1845 43.8851 40.2098 43.8211 40.2553 43.7727L47.1394 36.8886C47.1869 36.8411 47.2512 36.8145 47.3184 36.8145C47.3855 36.8145 47.4499 36.8411 47.4974 36.8886C47.5448 36.9361 47.5715 37.0004 47.5715 37.0676C47.5715 37.1347 47.5448 37.1991 47.4974 37.2466L40.6133 44.1306C40.5895 44.1534 40.5615 44.1712 40.5307 44.1831C40.5 44.1949 40.4672 44.2005 40.4343 44.1995Z" fill="white"/>
<path d="M40.4341 44.2958C40.3429 44.2929 40.2555 44.2589 40.1863 44.1994C40.1263 44.1335 40.0931 44.0476 40.0931 43.9585C40.0931 43.8693 40.1263 43.7834 40.1863 43.7175L47.0704 36.8335C47.1363 36.7735 47.2222 36.7402 47.3113 36.7402C47.4004 36.7402 47.4863 36.7735 47.5522 36.8335C47.5852 36.8644 47.6114 36.9017 47.6294 36.9431C47.6473 36.9846 47.6566 37.0292 47.6566 37.0744C47.6566 37.1196 47.6473 37.1642 47.6294 37.2057C47.6114 37.2471 47.5852 37.2844 47.5522 37.3153L40.6682 44.1994C40.6045 44.259 40.5213 44.2932 40.4341 44.2958ZM47.3182 36.9574C47.2828 36.9435 47.2435 36.9435 47.208 36.9574L40.324 43.8414C40.3069 43.8543 40.293 43.8709 40.2834 43.89C40.2739 43.9091 40.2689 43.9302 40.2689 43.9516C40.2689 43.9729 40.2739 43.994 40.2834 44.0131C40.293 44.0323 40.3069 44.0489 40.324 44.0617C40.3543 44.0888 40.3935 44.1038 40.4341 44.1038C40.4748 44.1038 40.514 44.0888 40.5443 44.0617L47.4283 37.1777C47.4554 37.1474 47.4704 37.1082 47.4704 37.0675C47.4704 37.0269 47.4554 36.9877 47.4283 36.9574C47.3929 36.9435 47.3536 36.9435 47.3182 36.9574Z" fill="white"/>
<path d="M47.0015 40.1094C46.9693 40.105 46.9385 40.0936 46.9112 40.0759C46.884 40.0582 46.861 40.0347 46.8438 40.007C46.8267 39.9794 46.816 39.9483 46.8123 39.916C46.8086 39.8837 46.8121 39.851 46.8226 39.8203L47.4421 37.0666L44.6885 37.3695C44.6228 37.3695 44.5597 37.3434 44.5133 37.2969C44.4668 37.2505 44.4407 37.1874 44.4407 37.1217C44.4407 37.056 44.4668 36.9929 44.5133 36.9465C44.5597 36.9 44.6228 36.8739 44.6885 36.8739L47.8276 36.5434C47.8663 36.5377 47.9058 36.5423 47.9421 36.5568C47.9784 36.5713 48.0102 36.5952 48.0342 36.6261C48.0511 36.6603 48.06 36.698 48.06 36.7362C48.06 36.7744 48.0511 36.8121 48.0342 36.8463L47.3182 39.9166C47.3143 39.9522 47.3022 39.9864 47.283 40.0166C47.2638 40.0469 47.2379 40.0722 47.2073 40.0909C47.1767 40.1095 47.1422 40.1208 47.1066 40.1241C47.0709 40.1273 47.035 40.1222 47.0015 40.1094Z" fill="white"/>
<path d="M47.0018 40.2065H46.9192C46.8346 40.1821 46.7614 40.1284 46.7127 40.0551C46.6783 39.9713 46.6783 39.8773 46.7127 39.7935L47.3185 37.1775L44.6475 37.4529C44.5583 37.4607 44.4696 37.4334 44.4002 37.3768C44.3308 37.3203 44.2861 37.2389 44.2757 37.15C44.2713 37.0615 44.2998 36.9746 44.3557 36.9059C44.4117 36.8373 44.4911 36.7918 44.5786 36.7783L47.7177 36.4478C47.7713 36.4412 47.8256 36.4478 47.876 36.467C47.9264 36.4862 47.9713 36.5174 48.0069 36.558C48.0413 36.5995 48.0655 36.6486 48.0774 36.7012C48.0894 36.7538 48.0888 36.8085 48.0757 36.8609L47.3185 39.9312C47.3034 40.0055 47.2642 40.0729 47.207 40.1227C47.1497 40.1725 47.0776 40.202 47.0018 40.2065ZM47.3873 36.971C47.3978 36.965 47.4096 36.9618 47.4217 36.9618C47.4338 36.9618 47.4457 36.965 47.4562 36.971C47.4562 36.971 47.4562 36.971 47.4562 37.0536L46.8228 39.8072C46.8228 39.8271 46.8267 39.8468 46.8343 39.8652C46.842 39.8836 46.8531 39.9003 46.8672 39.9143C46.8812 39.9284 46.8979 39.9396 46.9163 39.9472C46.9347 39.9548 46.9544 39.9587 46.9743 39.9587C46.9942 39.9587 47.0139 39.9548 47.0322 39.9472C47.0506 39.9396 47.0673 39.9284 47.0814 39.9143C47.0954 39.9003 47.1066 39.8836 47.1142 39.8652C47.1218 39.8468 47.1257 39.8271 47.1257 39.8072L47.8279 36.737C47.8378 36.7154 47.8429 36.6919 47.8429 36.6681C47.8429 36.6443 47.8378 36.6209 47.8279 36.5993C47.8066 36.5884 47.783 36.5827 47.7591 36.5827C47.7351 36.5827 47.7115 36.5884 47.6902 36.5993L44.5648 36.971C44.5454 36.9726 44.5265 36.9782 44.5093 36.9876C44.4922 36.9971 44.4773 37.01 44.4656 37.0256C44.4539 37.0413 44.4456 37.0592 44.4414 37.0783C44.4371 37.0973 44.437 37.1171 44.4409 37.1362C44.4427 37.1561 44.4483 37.1755 44.4576 37.1932C44.4668 37.211 44.4795 37.2267 44.4949 37.2395C44.5102 37.2523 44.528 37.2619 44.5471 37.2678C44.5662 37.2737 44.5862 37.2758 44.6062 37.2739L47.3598 36.971H47.3873Z" fill="white"/>
<path d="M37.0335 47.6142C36.9609 47.6132 36.8916 47.5835 36.8408 47.5316C36.8247 47.4971 36.8164 47.4595 36.8164 47.4215C36.8164 47.3834 36.8247 47.3459 36.8408 47.3113L37.5154 44.2273C37.5202 44.1949 37.5317 44.1638 37.5492 44.1362C37.5667 44.1085 37.5899 44.0848 37.6171 44.0667C37.6444 44.0485 37.6751 44.0362 37.7074 44.0307C37.7397 44.0252 37.7728 44.0265 37.8045 44.0345C37.8375 44.041 37.8688 44.0541 37.8965 44.073C37.9242 44.092 37.9478 44.1163 37.9658 44.1447C37.9839 44.173 37.9959 44.2047 38.0013 44.2378C38.0068 44.271 38.0054 44.3048 37.9973 44.3374L37.3915 47.0911L40.1451 46.7606C40.1769 46.7547 40.2096 46.7555 40.2411 46.7629C40.2726 46.7703 40.3022 46.7841 40.328 46.8035C40.3539 46.8229 40.3755 46.8475 40.3914 46.8757C40.4073 46.9038 40.4172 46.935 40.4205 46.9671C40.4243 46.9997 40.4216 47.0327 40.4126 47.0643C40.4035 47.0958 40.3883 47.1252 40.3678 47.1508C40.3474 47.1765 40.322 47.1978 40.2932 47.2135C40.2644 47.2292 40.2328 47.2391 40.2002 47.2425L37.0748 47.628L37.0335 47.6142Z" fill="white"/>
<path d="M37.0334 47.6958C36.9351 47.6952 36.841 47.6555 36.7718 47.5857C36.7374 47.5441 36.7133 47.495 36.7013 47.4424C36.6894 47.3898 36.6899 47.3351 36.703 47.2828L37.3639 44.2125C37.3643 44.1616 37.376 44.1114 37.3981 44.0655C37.4203 44.0197 37.4524 43.9793 37.492 43.9474C37.5316 43.9154 37.5779 43.8926 37.6274 43.8807C37.6769 43.8687 37.7284 43.8679 37.7783 43.8783C37.8281 43.8887 37.875 43.91 37.9157 43.9407C37.9563 43.9715 37.9896 44.0108 38.0131 44.0559C38.0367 44.1011 38.05 44.1509 38.052 44.2017C38.054 44.2526 38.0447 44.3033 38.0247 44.3502L37.4602 46.9661L40.1175 46.6494C40.1567 46.6328 40.1988 46.6242 40.2414 46.6242C40.284 46.6242 40.3261 46.6328 40.3653 46.6494C40.4025 46.6743 40.4341 46.7068 40.4578 46.7448C40.4815 46.7828 40.4969 46.8254 40.503 46.8697C40.511 46.9605 40.4842 47.0509 40.4279 47.1225C40.3716 47.1941 40.2902 47.2416 40.2001 47.2552L37.0747 47.6958H37.0334ZM37.6805 44.1299C37.6466 44.1286 37.6132 44.1388 37.5857 44.1587C37.5583 44.1787 37.5383 44.2073 37.5291 44.24L36.8682 47.3241C36.8617 47.3471 36.8607 47.3713 36.8653 47.3948C36.8699 47.4182 36.88 47.4403 36.8948 47.4591C36.9096 47.4779 36.9286 47.4929 36.9503 47.5029C36.972 47.513 36.9958 47.5177 37.0197 47.5168L40.145 47.1451C40.1663 47.1435 40.187 47.1375 40.2057 47.1274C40.2245 47.1173 40.2409 47.1033 40.2539 47.0864C40.2669 47.0695 40.2762 47.0501 40.2811 47.0293C40.2861 47.0086 40.2866 46.9871 40.2827 46.9661C40.29 46.9511 40.2938 46.9346 40.2938 46.9179C40.2938 46.9012 40.29 46.8848 40.2827 46.8697C40.2473 46.8559 40.208 46.8559 40.1726 46.8697L37.4189 47.2139C37.4085 47.22 37.3966 47.2232 37.3845 47.2232C37.3724 47.2232 37.3606 47.22 37.3501 47.2139V47.1313L37.9421 44.3777C37.9461 44.3578 37.946 44.3373 37.9419 44.3174C37.9378 44.2975 37.9297 44.2786 37.9181 44.2619C37.9066 44.2453 37.8917 44.231 37.8746 44.2202C37.8574 44.2093 37.8383 44.202 37.8182 44.1987L37.6805 44.1299Z" fill="white"/>
</svg>
